<?xml version="1.0" encoding="UTF-8"?><svg id="Calque_2" xmlns="http://www.w3.org/2000/svg" viewBox="0 0 190.55 157.19"><defs><style>.cls-1{fill:#fff;}.cls-2{fill:none;stroke:#fff;stroke-miterlimit:10;stroke-width:2.83px;}</style></defs><g id="Couleurs_proposition_finale_fond_noir"><g id="couleur_5_-_copie_2"><g id="Proposition_8_-_copie_6"><path class="cls-1" d="m27.67,155.77h-15.91c-8.85,0-14.53-9.42-10.38-17.25L56.65,34.27l14.86-28.02c2.04-3.84,6.03-6.24,10.38-6.24h15.91c8.85,0,14.53,9.42,10.38,17.25L38.05,149.53c-2.04,3.84-6.03,6.24-10.38,6.24Z"/><path class="cls-2" d="m161.36,155.77h16.01c8.81,0,14.48-9.34,10.43-17.16l-56.48-106.35c-4.36-8.41-16.37-8.46-20.8-.09l-7.88,14.88c-1.8,3.4-1.82,7.46-.06,10.88l48.36,91.47c2.01,3.91,6.04,6.37,10.44,6.37Z"/><path class="cls-1" d="m38.53,43.76l16.48-30.97c3.08-5.79-1.12-12.78-7.68-12.78H14.38C7.81,0,3.62,6.99,6.7,12.78l16.48,30.97c3.27,6.15,12.08,6.15,15.36,0Z"/><path class="cls-2" d="m86.68,79.58l-16.48,30.97c-3.08,5.79,1.12,12.78,7.68,12.78h32.96c6.56,0,10.76-6.99,7.68-12.78l-16.48-30.97c-3.27-6.15-12.08-6.15-15.36,0Z"/></g></g></g></svg>