<?xml version="1.0" encoding="utf-8"?>
<!-- Generator: $$$/GeneralStr/196=Adobe Illustrator 27.6.0, SVG Export Plug-In . SVG Version: 6.00 Build 0)  -->
<svg version="1.1" id="Calque_2_00000176024591938025840960000010856050969994368437_"
	 xmlns="http://www.w3.org/2000/svg" xmlns:xlink="http://www.w3.org/1999/xlink" x="0px" y="0px" viewBox="0 0 190.6 157.2"
	 style="enable-background:new 0 0 190.6 157.2;" xml:space="preserve">
<style type="text/css">
	.st0{fill:none;stroke:#000000;stroke-width:5;stroke-miterlimit:10;}
</style>
<g id="Proposition_8_-_copie_7">
	<path d="M27.7,155.8H11.8c-8.9,0-14.5-9.4-10.4-17.2L56.7,34.3l14.9-28c2-3.8,6-6.2,10.4-6.2h15.9c8.8,0,14.5,9.4,10.4,17.2
		L38,149.5C36,153.4,32,155.8,27.7,155.8z"/>
	<path class="st0" d="M161.4,155.8h16c8.8,0,14.5-9.3,10.4-17.2L131.3,32.3c-4.4-8.4-16.4-8.5-20.8-0.1L102.6,47
		c-1.8,3.4-1.8,7.5-0.1,10.9l48.4,91.5C152.9,153.3,157,155.8,161.4,155.8L161.4,155.8z"/>
	<path d="M38.5,43.8l16.5-31C58.1,7,53.9,0,47.3,0H14.4C7.8,0,3.6,7,6.7,12.8l16.5,31C26.5,49.9,35.3,49.9,38.5,43.8L38.5,43.8z"/>
	<path class="st0" d="M86.7,79.6l-16.5,31c-3.1,5.8,1.1,12.8,7.7,12.8h33c6.6,0,10.8-7,7.7-12.8l-16.5-31
		C98.8,73.4,90,73.4,86.7,79.6z"/>
</g>
</svg>
